<svg width="40" height="27" viewBox="0 0 40 27" fill="none" xmlns="http://www.w3.org/2000/svg">
<path fill-rule="evenodd" clip-rule="evenodd" d="M39.948 5.39062V5.72914C39.948 6.24688 39.5282 6.66664 39.0105 6.66664H0.9375C0.419766 6.66664 0 6.24688 0 5.72914V5.39062C0 2.41344 2.41344 0 5.39062 0H34.5573C37.5345 0 39.948 2.41344 39.948 5.39062ZM0 10.8854V21.2239C0 24.2011 2.41344 26.6145 5.39062 26.6145H34.5573C37.5345 26.6145 39.948 24.2011 39.948 21.2239V10.8854C39.948 10.3677 39.5282 9.94789 39.0105 9.94789H0.9375C0.419766 9.94789 0 10.3677 0 10.8854ZM9.97398 17.4479H7.47398C6.56789 17.4479 5.83336 16.7134 5.83336 15.8073C5.83336 14.9012 6.56789 14.1666 7.47398 14.1666H9.97398C10.8801 14.1666 11.6146 14.9012 11.6146 15.8073C11.6146 16.7134 10.8801 17.4479 9.97398 17.4479Z" fill="white"/>
</svg>
