<svg width="40" height="40" viewBox="0 0 40 40" fill="none" xmlns="http://www.w3.org/2000/svg">
<path fill-rule="evenodd" clip-rule="evenodd" d="M8.37097 17.7615C7.73865 18.3707 6.88293 18.75 5.9375 18.75C3.99902 18.75 2.42188 17.1729 2.42188 15.2344C2.42188 13.2959 3.99902 11.7188 5.9375 11.7188C7.87598 11.7188 9.45312 13.2959 9.45312 15.2344C9.45312 15.3447 9.43847 15.451 9.4238 15.5574C9.41907 15.5917 9.41434 15.626 9.4101 15.6604L12.879 17.3947C13.5114 16.7856 14.3671 16.4062 15.3125 16.4062C15.8536 16.4062 16.3602 16.5393 16.8185 16.7587L21.5244 12.0529C21.3049 11.5945 21.1719 11.088 21.1719 10.5469C21.1719 8.6084 22.749 7.03125 24.6875 7.03125C25.4071 7.03125 26.0757 7.25006 26.6336 7.62268L30.7224 4.55688C30.6186 4.22577 30.5469 3.88062 30.5469 3.51562C30.5469 1.57715 32.124 0 34.0625 0C36.001 0 37.5781 1.57715 37.5781 3.51562C37.5781 5.4541 36.001 7.03125 34.0625 7.03125C33.3429 7.03125 32.6743 6.81244 32.1164 6.43982L28.0276 9.50562C28.1314 9.83673 28.2031 10.1819 28.2031 10.5469C28.2031 12.4854 26.626 14.0625 24.6875 14.0625C24.1464 14.0625 23.6398 13.9294 23.1815 13.71L18.4756 18.4158C18.6951 18.8742 18.8281 19.3808 18.8281 19.9219C18.8281 21.8604 17.251 23.4375 15.3125 23.4375C13.374 23.4375 11.7969 21.8604 11.7969 19.9219C11.7969 19.8116 11.8115 19.7053 11.8262 19.5989C11.8309 19.5646 11.8357 19.5303 11.8399 19.4958L8.37097 17.7615ZM37.5781 37.6562H38.8281C39.4757 37.6562 40 38.1805 40 38.8281C40 39.4757 39.4757 40 38.8281 40H1.17188C0.524292 40 0 39.4757 0 38.8281C0 38.1805 0.524292 37.6562 1.17188 37.6562H2.42188V24.6094C2.42188 23.9618 2.94617 23.4375 3.59375 23.4375H8.28125C8.92883 23.4375 9.45312 23.9618 9.45312 24.6094V37.6562H11.7969V29.2969C11.7969 28.6493 12.3212 28.125 12.9688 28.125H17.6562C18.3038 28.125 18.8281 28.6493 18.8281 29.2969V37.6562H21.1719V19.9219C21.1719 19.2743 21.6962 18.75 22.3438 18.75H27.0312C27.6788 18.75 28.2031 19.2743 28.2031 19.9219V37.6562H30.5469V12.8906C30.5469 12.243 31.0712 11.7188 31.7188 11.7188H36.4062C37.0538 11.7188 37.5781 12.243 37.5781 12.8906V37.6562Z" fill="white"/>
</svg>
